<svg width="16" height="16" viewBox="0 0 16 16" fill="none" xmlns="http://www.w3.org/2000/svg">
<g clip-path="url(#clip0_101_314)">
<rect y="5" width="3" height="6" fill="black"/>
<rect x="3" y="4" width="1" height="8" fill="black"/>
<rect x="4" y="3" width="1" height="10" fill="black"/>
<rect x="5" y="2" width="1" height="12" fill="black"/>
<rect x="6" y="1" width="1" height="14" fill="black"/>
<rect x="7" width="1" height="16" fill="black"/>
<rect x="9" y="6" width="1" height="1" fill="black"/>
<rect x="9" y="7" width="1" height="1" fill="black"/>
<rect x="10" y="3" width="1" height="1" fill="black"/>
<rect x="10" y="4" width="1" height="1" fill="black"/>
<rect x="11" y="5" width="1" height="1" fill="black"/>
<rect x="12" y="7" width="1" height="1" fill="black"/>
<rect x="12" y="8" width="1" height="1" fill="black"/>
<rect x="11" y="10" width="1" height="1" fill="black"/>
<rect x="10" y="11" width="1" height="1" fill="black"/>
<rect x="11" y="4" width="1" height="1" fill="black"/>
<rect x="12" y="6" width="1" height="1" fill="black"/>
<rect x="12" y="6" width="1" height="1" fill="black"/>
<rect x="13" y="7" width="1" height="1" fill="black"/>
<rect x="12" y="5" width="1" height="1" fill="black"/>
<rect x="13" y="8" width="1" height="1" fill="black"/>
<rect x="12" y="9" width="1" height="1" fill="black"/>
<rect x="12" y="10" width="1" height="1" fill="black"/>
<rect x="11" y="11" width="1" height="1" fill="black"/>
<rect x="10" y="12" width="1" height="1" fill="black"/>
<rect x="15" y="6" width="1" height="1" fill="black"/>
<rect x="15" y="7" width="1" height="1" fill="black"/>
<rect x="15" y="8" width="1" height="1" fill="black"/>
<rect x="15" y="9" width="1" height="1" fill="black"/>
<rect width="1" height="1" transform="matrix(1 0 0 -1 14 6)" fill="black"/>
<rect width="1" height="1" transform="matrix(1 0 0 -1 15 6)" fill="black"/>
<rect x="14" y="10" width="1" height="1" fill="black"/>
<rect width="1" height="1" transform="matrix(1 0 0 -1 14 5)" fill="black"/>
<rect x="14" y="11" width="1" height="1" fill="black"/>
<rect x="13" y="12" width="1" height="2" fill="black"/>
<rect width="1" height="1" transform="matrix(1 0 0 -1 13 4)" fill="black"/>
<rect x="12" y="14" width="1" height="1" fill="black"/>
<rect x="11" y="15" width="1" height="1" fill="black"/>
<rect width="1" height="1" transform="matrix(1 0 0 -1 13 3)" fill="black"/>
<rect width="1" height="1" transform="matrix(1 0 0 -1 12 2)" fill="black"/>
<rect width="1" height="1" transform="matrix(1 0 0 -1 11 1)" fill="black"/>
<rect width="1" height="1" transform="matrix(1 0 0 -1 11 2)" fill="black"/>
<rect width="1" height="1" transform="matrix(1 0 0 -1 12 3)" fill="black"/>
<rect width="1" height="1" transform="matrix(1 0 0 -1 14 4)" fill="black"/>
<rect width="1" height="1" transform="matrix(1 0 0 -1 15 11)" fill="black"/>
<rect width="1" height="1" transform="matrix(1 0 0 -1 14 13)" fill="black"/>
<rect width="1" height="1" transform="matrix(1 0 0 -1 12 14)" fill="black"/>
<rect width="1" height="1" transform="matrix(1 0 0 -1 11 15)" fill="black"/>
<rect x="10" y="7" width="1" height="1" fill="black"/>
<rect x="10" y="8" width="1" height="1" fill="black"/>
<rect x="9" y="9" width="1" height="1" fill="black"/>
<rect x="9" y="8" width="1" height="1" fill="black"/>
</g>
<defs>
<clipPath id="clip0_101_314">
<rect width="16" height="16" fill="white"/>
</clipPath>
</defs>
</svg>
